<?xml version="1.0" encoding="utf-8"?>
<!-- Generator: Adobe Illustrator 20.0.0, SVG Export Plug-In . SVG Version: 6.00 Build 0)  -->
<svg version="1.1" id="Layer_1" xmlns="http://www.w3.org/2000/svg" xmlns:xlink="http://www.w3.org/1999/xlink" x="0px" y="0px"
	 viewBox="0 0 252.8 88.8" style="enable-background:new 0 0 252.8 88.8;" xml:space="preserve">
<style type="text/css">
	.st0{clip-path:url(#SVGID_2_);fill:#FAAF3B;}
	.st1{clip-path:url(#SVGID_2_);fill:#FAAE3A;}
	.st2{clip-path:url(#SVGID_2_);fill:#FAAD39;}
	.st3{clip-path:url(#SVGID_2_);fill:#FAAC38;}
	.st4{clip-path:url(#SVGID_2_);fill:#F9AB37;}
	.st5{clip-path:url(#SVGID_2_);fill:#F9AA37;}
	.st6{clip-path:url(#SVGID_2_);fill:#F9A936;}
	.st7{clip-path:url(#SVGID_2_);fill:#F9A835;}
	.st8{clip-path:url(#SVGID_2_);fill:#F9A734;}
	.st9{clip-path:url(#SVGID_2_);fill:#F9A633;}
	.st10{clip-path:url(#SVGID_2_);fill:#F9A532;}
	.st11{clip-path:url(#SVGID_2_);fill:#F9A431;}
	.st12{clip-path:url(#SVGID_2_);fill:#F8A330;}
	.st13{clip-path:url(#SVGID_2_);fill:#F8A22F;}
	.st14{clip-path:url(#SVGID_2_);fill:#F8A12E;}
	.st15{clip-path:url(#SVGID_2_);fill:#F8A02E;}
	.st16{clip-path:url(#SVGID_2_);fill:#F89E2D;}
	.st17{clip-path:url(#SVGID_2_);fill:#F89D2C;}
	.st18{clip-path:url(#SVGID_2_);fill:#F89C2B;}
	.st19{clip-path:url(#SVGID_2_);fill:#F79B2A;}
	.st20{clip-path:url(#SVGID_2_);fill:#F79A29;}
	.st21{clip-path:url(#SVGID_2_);fill:#F79928;}
	.st22{clip-path:url(#SVGID_2_);fill:#F79827;}
	.st23{clip-path:url(#SVGID_2_);fill:#F79726;}
	.st24{clip-path:url(#SVGID_2_);fill:#F79625;}
	.st25{clip-path:url(#SVGID_2_);fill:#F79525;}
	.st26{clip-path:url(#SVGID_2_);fill:#F79424;}
	.st27{clip-path:url(#SVGID_2_);fill:#F69323;}
	.st28{clip-path:url(#SVGID_2_);fill:#F69222;}
	.st29{clip-path:url(#SVGID_2_);fill:#F69121;}
	.st30{clip-path:url(#SVGID_2_);fill:#F69020;}
	.st31{fill:#797979;}
	.st32{fill:#F9AC41;}
	.st33{clip-path:url(#SVGID_4_);fill:#FAAE3A;}
	.st34{clip-path:url(#SVGID_4_);fill:#FAAD3A;}
	.st35{clip-path:url(#SVGID_4_);fill:#FAAC39;}
	.st36{clip-path:url(#SVGID_4_);fill:#F9AB38;}
	.st37{clip-path:url(#SVGID_4_);fill:#F9AA38;}
	.st38{clip-path:url(#SVGID_4_);fill:#F9A937;}
	.st39{clip-path:url(#SVGID_4_);fill:#F9A837;}
	.st40{clip-path:url(#SVGID_4_);fill:#F9A736;}
	.st41{clip-path:url(#SVGID_4_);fill:#F9A635;}
	.st42{clip-path:url(#SVGID_4_);fill:#F9A535;}
	.st43{clip-path:url(#SVGID_4_);fill:#F8A434;}
	.st44{clip-path:url(#SVGID_4_);fill:#F8A333;}
	.st45{clip-path:url(#SVGID_4_);fill:#F8A233;}
	.st46{clip-path:url(#SVGID_4_);fill:#F8A132;}
	.st47{clip-path:url(#SVGID_4_);fill:#F8A031;}
	.st48{clip-path:url(#SVGID_4_);fill:#F89F31;}
	.st49{clip-path:url(#SVGID_4_);fill:#F89E30;}
	.st50{clip-path:url(#SVGID_4_);fill:#F79D30;}
	.st51{clip-path:url(#SVGID_4_);fill:#F79C2F;}
	.st52{clip-path:url(#SVGID_4_);fill:#F79B2E;}
	.st53{clip-path:url(#SVGID_4_);fill:#F7992E;}
	.st54{clip-path:url(#SVGID_4_);fill:#F7982D;}
	.st55{clip-path:url(#SVGID_4_);fill:#F7972C;}
	.st56{clip-path:url(#SVGID_4_);fill:#F6962C;}
	.st57{clip-path:url(#SVGID_4_);fill:#F6952B;}
	.st58{clip-path:url(#SVGID_4_);fill:#F6942B;}
	.st59{clip-path:url(#SVGID_4_);fill:#F6932A;}
	.st60{clip-path:url(#SVGID_4_);fill:#F69229;}
	.st61{clip-path:url(#SVGID_4_);fill:#F69129;}
	.st62{clip-path:url(#SVGID_4_);fill:#F69028;}
	.st63{clip-path:url(#SVGID_4_);fill:#F58F27;}
	.st64{clip-path:url(#SVGID_4_);fill:#F58E27;}
	.st65{clip-path:url(#SVGID_4_);fill:#F58D26;}
	.st66{clip-path:url(#SVGID_4_);fill:#F58C25;}
	.st67{clip-path:url(#SVGID_4_);fill:#F58B25;}
	.st68{clip-path:url(#SVGID_4_);fill:#F58A24;}
	.st69{clip-path:url(#SVGID_4_);fill:#F58924;}
	.st70{clip-path:url(#SVGID_4_);fill:#F48823;}
	.st71{clip-path:url(#SVGID_4_);fill:#F48722;}
	.st72{clip-path:url(#SVGID_6_);fill:#F8A434;}
	.st73{clip-path:url(#SVGID_6_);fill:#F8A333;}
	.st74{clip-path:url(#SVGID_6_);fill:#F8A233;}
	.st75{clip-path:url(#SVGID_6_);fill:#F8A132;}
	.st76{clip-path:url(#SVGID_6_);fill:#F8A031;}
	.st77{clip-path:url(#SVGID_6_);fill:#F89F31;}
	.st78{clip-path:url(#SVGID_6_);fill:#F89E30;}
	.st79{clip-path:url(#SVGID_6_);fill:#F79D30;}
	.st80{clip-path:url(#SVGID_6_);fill:#F79C2F;}
	.st81{clip-path:url(#SVGID_6_);fill:#F79B2E;}
	.st82{clip-path:url(#SVGID_6_);fill:#F7992E;}
	.st83{clip-path:url(#SVGID_6_);fill:#F7982D;}
	.st84{clip-path:url(#SVGID_6_);fill:#F7972C;}
	.st85{clip-path:url(#SVGID_6_);fill:#F6962C;}
	.st86{clip-path:url(#SVGID_6_);fill:#F6952B;}
	.st87{clip-path:url(#SVGID_6_);fill:#F6942B;}
	.st88{clip-path:url(#SVGID_6_);fill:#F6932A;}
	.st89{clip-path:url(#SVGID_6_);fill:#F69229;}
	.st90{clip-path:url(#SVGID_6_);fill:#F69129;}
	.st91{clip-path:url(#SVGID_6_);fill:#F69028;}
	.st92{clip-path:url(#SVGID_6_);fill:#F58F27;}
	.st93{clip-path:url(#SVGID_6_);fill:#F58E27;}
	.st94{clip-path:url(#SVGID_6_);fill:#F58D26;}
	.st95{clip-path:url(#SVGID_6_);fill:#F58C25;}
	.st96{clip-path:url(#SVGID_6_);fill:#F58B25;}
	.st97{clip-path:url(#SVGID_6_);fill:#F58A24;}
	.st98{clip-path:url(#SVGID_6_);fill:#F58924;}
	.st99{clip-path:url(#SVGID_6_);fill:#F48823;}
	.st100{clip-path:url(#SVGID_6_);fill:#F48722;}
	.st101{clip-path:url(#SVGID_6_);fill:#F48622;}
	.st102{clip-path:url(#SVGID_6_);fill:#F48521;}
	.st103{clip-path:url(#SVGID_10_);fill:#FAAE3A;}
	.st104{clip-path:url(#SVGID_10_);fill:#FAAD3A;}
	.st105{clip-path:url(#SVGID_10_);fill:#FAAC39;}
	.st106{clip-path:url(#SVGID_10_);fill:#F9AB38;}
	.st107{clip-path:url(#SVGID_10_);fill:#F9AA38;}
	.st108{clip-path:url(#SVGID_10_);fill:#F9A937;}
	.st109{clip-path:url(#SVGID_10_);fill:#F9A837;}
	.st110{clip-path:url(#SVGID_10_);fill:#F9A736;}
	.st111{clip-path:url(#SVGID_10_);fill:#F9A635;}
	.st112{clip-path:url(#SVGID_10_);fill:#F9A535;}
	.st113{clip-path:url(#SVGID_10_);fill:#F8A434;}
	.st114{clip-path:url(#SVGID_10_);fill:#F8A333;}
	.st115{clip-path:url(#SVGID_10_);fill:#F8A233;}
	.st116{clip-path:url(#SVGID_10_);fill:#F8A132;}
	.st117{clip-path:url(#SVGID_10_);fill:#F8A031;}
	.st118{clip-path:url(#SVGID_10_);fill:#F89F31;}
	.st119{clip-path:url(#SVGID_10_);fill:#F89E30;}
	.st120{clip-path:url(#SVGID_10_);fill:#F79D30;}
	.st121{clip-path:url(#SVGID_10_);fill:#F79C2F;}
	.st122{clip-path:url(#SVGID_10_);fill:#F79B2E;}
	.st123{clip-path:url(#SVGID_10_);fill:#F7992E;}
	.st124{clip-path:url(#SVGID_10_);fill:#F7982D;}
	.st125{clip-path:url(#SVGID_10_);fill:#F7972C;}
	.st126{clip-path:url(#SVGID_10_);fill:#F6962C;}
	.st127{clip-path:url(#SVGID_10_);fill:#F6952B;}
	.st128{clip-path:url(#SVGID_10_);fill:#F6942B;}
	.st129{clip-path:url(#SVGID_10_);fill:#F6932A;}
	.st130{clip-path:url(#SVGID_10_);fill:#F69229;}
	.st131{clip-path:url(#SVGID_10_);fill:#F69129;}
	.st132{clip-path:url(#SVGID_10_);fill:#F69028;}
	.st133{clip-path:url(#SVGID_10_);fill:#F58F27;}
	.st134{clip-path:url(#SVGID_10_);fill:#F58E27;}
	.st135{clip-path:url(#SVGID_10_);fill:#F58D26;}
	.st136{clip-path:url(#SVGID_10_);fill:#F58C25;}
	.st137{clip-path:url(#SVGID_10_);fill:#F58B25;}
	.st138{clip-path:url(#SVGID_10_);fill:#F58A24;}
	.st139{clip-path:url(#SVGID_10_);fill:#F58924;}
	.st140{clip-path:url(#SVGID_10_);fill:#F48823;}
	.st141{clip-path:url(#SVGID_10_);fill:#F48722;}
	.st142{clip-path:url(#SVGID_10_);fill:#F48622;}
	.st143{clip-path:url(#SVGID_10_);fill:#F48521;}
	.st144{clip-path:url(#SVGID_14_);fill:#FAAD3A;}
	.st145{clip-path:url(#SVGID_14_);fill:#FAAC39;}
	.st146{clip-path:url(#SVGID_14_);fill:#F9AB38;}
	.st147{clip-path:url(#SVGID_14_);fill:#F9AA38;}
	.st148{clip-path:url(#SVGID_14_);fill:#F9A937;}
	.st149{clip-path:url(#SVGID_14_);fill:#F9A837;}
	.st150{clip-path:url(#SVGID_14_);fill:#F9A736;}
	.st151{clip-path:url(#SVGID_14_);fill:#F9A635;}
	.st152{clip-path:url(#SVGID_14_);fill:#F9A535;}
	.st153{clip-path:url(#SVGID_14_);fill:#F8A434;}
	.st154{clip-path:url(#SVGID_14_);fill:#F8A333;}
	.st155{clip-path:url(#SVGID_14_);fill:#F8A233;}
	.st156{clip-path:url(#SVGID_14_);fill:#F8A132;}
	.st157{clip-path:url(#SVGID_14_);fill:#F8A031;}
	.st158{clip-path:url(#SVGID_14_);fill:#F89F31;}
	.st159{clip-path:url(#SVGID_14_);fill:#F89E30;}
	.st160{clip-path:url(#SVGID_14_);fill:#F79D30;}
	.st161{clip-path:url(#SVGID_14_);fill:#F79C2F;}
	.st162{clip-path:url(#SVGID_14_);fill:#F79B2E;}
	.st163{clip-path:url(#SVGID_14_);fill:#F7992E;}
	.st164{clip-path:url(#SVGID_14_);fill:#F7982D;}
	.st165{clip-path:url(#SVGID_14_);fill:#F7972C;}
	.st166{clip-path:url(#SVGID_14_);fill:#F6962C;}
	.st167{clip-path:url(#SVGID_14_);fill:#F6952B;}
	.st168{clip-path:url(#SVGID_14_);fill:#F6942B;}
	.st169{clip-path:url(#SVGID_14_);fill:#F6932A;}
	.st170{clip-path:url(#SVGID_14_);fill:#F69229;}
	.st171{clip-path:url(#SVGID_14_);fill:#F69129;}
	.st172{clip-path:url(#SVGID_14_);fill:#F69028;}
	.st173{clip-path:url(#SVGID_14_);fill:#F58F27;}
	.st174{clip-path:url(#SVGID_14_);fill:#F58E27;}
	.st175{clip-path:url(#SVGID_14_);fill:#F58D26;}
	.st176{clip-path:url(#SVGID_14_);fill:#F58C25;}
	.st177{clip-path:url(#SVGID_14_);fill:#F58B25;}
	.st178{clip-path:url(#SVGID_14_);fill:#F58A24;}
	.st179{clip-path:url(#SVGID_14_);fill:#F58924;}
	.st180{clip-path:url(#SVGID_14_);fill:#F48823;}
	.st181{clip-path:url(#SVGID_14_);fill:#F48722;}
	.st182{clip-path:url(#SVGID_14_);fill:#F48622;}
	.st183{clip-path:url(#SVGID_14_);fill:#F48521;}
	.st184{clip-path:url(#SVGID_16_);fill:#FAAD3A;}
	.st185{clip-path:url(#SVGID_16_);fill:#FAAC39;}
	.st186{clip-path:url(#SVGID_16_);fill:#F9AB38;}
	.st187{clip-path:url(#SVGID_16_);fill:#F9AA38;}
	.st188{clip-path:url(#SVGID_16_);fill:#F9A937;}
	.st189{clip-path:url(#SVGID_16_);fill:#F9A837;}
	.st190{clip-path:url(#SVGID_16_);fill:#F9A736;}
	.st191{clip-path:url(#SVGID_16_);fill:#F9A635;}
	.st192{clip-path:url(#SVGID_16_);fill:#F9A535;}
	.st193{clip-path:url(#SVGID_16_);fill:#F8A434;}
	.st194{clip-path:url(#SVGID_16_);fill:#F8A333;}
	.st195{clip-path:url(#SVGID_16_);fill:#F8A233;}
	.st196{clip-path:url(#SVGID_16_);fill:#F8A132;}
	.st197{clip-path:url(#SVGID_16_);fill:#F8A031;}
	.st198{clip-path:url(#SVGID_16_);fill:#F89F31;}
	.st199{clip-path:url(#SVGID_16_);fill:#F89E30;}
	.st200{clip-path:url(#SVGID_16_);fill:#F79D30;}
	.st201{clip-path:url(#SVGID_16_);fill:#F79C2F;}
	.st202{clip-path:url(#SVGID_16_);fill:#F79B2E;}
	.st203{clip-path:url(#SVGID_16_);fill:#F7992E;}
	.st204{clip-path:url(#SVGID_16_);fill:#F7982D;}
	.st205{clip-path:url(#SVGID_16_);fill:#F7972C;}
	.st206{clip-path:url(#SVGID_16_);fill:#F6962C;}
	.st207{clip-path:url(#SVGID_16_);fill:#F6952B;}
	.st208{clip-path:url(#SVGID_16_);fill:#F6942B;}
	.st209{clip-path:url(#SVGID_16_);fill:#F6932A;}
	.st210{clip-path:url(#SVGID_16_);fill:#F69229;}
	.st211{clip-path:url(#SVGID_16_);fill:#F69129;}
	.st212{clip-path:url(#SVGID_16_);fill:#F69028;}
	.st213{clip-path:url(#SVGID_16_);fill:#F58F27;}
	.st214{clip-path:url(#SVGID_16_);fill:#F58E27;}
	.st215{clip-path:url(#SVGID_16_);fill:#F58D26;}
	.st216{clip-path:url(#SVGID_16_);fill:#F58C25;}
	.st217{clip-path:url(#SVGID_16_);fill:#F58B25;}
	.st218{clip-path:url(#SVGID_16_);fill:#F58A24;}
	.st219{clip-path:url(#SVGID_16_);fill:#F58924;}
	.st220{clip-path:url(#SVGID_16_);fill:#F48823;}
	.st221{clip-path:url(#SVGID_16_);fill:#F48722;}
	.st222{clip-path:url(#SVGID_16_);fill:#F48622;}
	.st223{clip-path:url(#SVGID_16_);fill:#F48521;}
	.st224{clip-path:url(#SVGID_18_);fill:#FAAC39;}
	.st225{clip-path:url(#SVGID_18_);fill:#F9AB38;}
	.st226{clip-path:url(#SVGID_18_);fill:#F9AA38;}
	.st227{clip-path:url(#SVGID_18_);fill:#F9A937;}
	.st228{clip-path:url(#SVGID_18_);fill:#F9A837;}
	.st229{clip-path:url(#SVGID_18_);fill:#F9A736;}
	.st230{clip-path:url(#SVGID_18_);fill:#F9A635;}
	.st231{clip-path:url(#SVGID_18_);fill:#F9A535;}
	.st232{clip-path:url(#SVGID_18_);fill:#F8A434;}
	.st233{clip-path:url(#SVGID_18_);fill:#F8A333;}
	.st234{clip-path:url(#SVGID_18_);fill:#F8A233;}
	.st235{clip-path:url(#SVGID_18_);fill:#F8A132;}
	.st236{clip-path:url(#SVGID_18_);fill:#F8A031;}
	.st237{clip-path:url(#SVGID_18_);fill:#F89F31;}
	.st238{clip-path:url(#SVGID_18_);fill:#F89E30;}
	.st239{clip-path:url(#SVGID_18_);fill:#F79D30;}
	.st240{clip-path:url(#SVGID_18_);fill:#F79C2F;}
	.st241{clip-path:url(#SVGID_18_);fill:#F79B2E;}
	.st242{clip-path:url(#SVGID_18_);fill:#F7992E;}
	.st243{clip-path:url(#SVGID_18_);fill:#F7982D;}
	.st244{clip-path:url(#SVGID_18_);fill:#F7972C;}
	.st245{clip-path:url(#SVGID_18_);fill:#F6962C;}
	.st246{clip-path:url(#SVGID_18_);fill:#F6952B;}
	.st247{clip-path:url(#SVGID_18_);fill:#F6942B;}
	.st248{clip-path:url(#SVGID_18_);fill:#F6932A;}
	.st249{clip-path:url(#SVGID_18_);fill:#F69229;}
	.st250{clip-path:url(#SVGID_18_);fill:#F69129;}
	.st251{clip-path:url(#SVGID_18_);fill:#F69028;}
	.st252{clip-path:url(#SVGID_18_);fill:#F58F27;}
	.st253{clip-path:url(#SVGID_18_);fill:#F58E27;}
	.st254{clip-path:url(#SVGID_18_);fill:#F58D26;}
	.st255{clip-path:url(#SVGID_18_);fill:#F58C25;}
	.st256{clip-path:url(#SVGID_18_);fill:#F58B25;}
	.st257{clip-path:url(#SVGID_18_);fill:#F58A24;}
	.st258{clip-path:url(#SVGID_18_);fill:#F58924;}
	.st259{clip-path:url(#SVGID_18_);fill:#F48823;}
	.st260{clip-path:url(#SVGID_18_);fill:#F48722;}
	.st261{clip-path:url(#SVGID_18_);fill:#F48622;}
	.st262{clip-path:url(#SVGID_18_);fill:#F48521;}
	.st263{clip-path:url(#SVGID_20_);fill:#FAAF3B;}
	.st264{clip-path:url(#SVGID_20_);fill:#FAAE3A;}
	.st265{clip-path:url(#SVGID_20_);fill:#FAAD3A;}
	.st266{clip-path:url(#SVGID_20_);fill:#FAAC39;}
	.st267{clip-path:url(#SVGID_20_);fill:#F9AB38;}
	.st268{clip-path:url(#SVGID_20_);fill:#F9AA38;}
	.st269{clip-path:url(#SVGID_20_);fill:#F9A937;}
	.st270{clip-path:url(#SVGID_20_);fill:#F9A837;}
	.st271{clip-path:url(#SVGID_20_);fill:#F9A736;}
	.st272{clip-path:url(#SVGID_20_);fill:#F9A635;}
	.st273{clip-path:url(#SVGID_20_);fill:#F9A535;}
	.st274{clip-path:url(#SVGID_20_);fill:#F8A434;}
	.st275{clip-path:url(#SVGID_20_);fill:#F8A333;}
	.st276{clip-path:url(#SVGID_20_);fill:#F8A233;}
	.st277{clip-path:url(#SVGID_20_);fill:#F8A132;}
	.st278{clip-path:url(#SVGID_20_);fill:#F8A031;}
	.st279{clip-path:url(#SVGID_20_);fill:#F89F31;}
	.st280{clip-path:url(#SVGID_20_);fill:#F89E30;}
	.st281{clip-path:url(#SVGID_20_);fill:#F79D30;}
	.st282{clip-path:url(#SVGID_20_);fill:#F79C2F;}
	.st283{clip-path:url(#SVGID_20_);fill:#F79B2E;}
	.st284{clip-path:url(#SVGID_20_);fill:#F7992E;}
	.st285{clip-path:url(#SVGID_20_);fill:#F7982D;}
	.st286{clip-path:url(#SVGID_20_);fill:#F7972C;}
	.st287{clip-path:url(#SVGID_20_);fill:#F6962C;}
	.st288{clip-path:url(#SVGID_20_);fill:#F6952B;}
	.st289{clip-path:url(#SVGID_20_);fill:#F6942B;}
	.st290{clip-path:url(#SVGID_20_);fill:#F6932A;}
	.st291{clip-path:url(#SVGID_20_);fill:#F69229;}
	.st292{clip-path:url(#SVGID_20_);fill:#F69129;}
	.st293{clip-path:url(#SVGID_20_);fill:#F69028;}
	.st294{clip-path:url(#SVGID_20_);fill:#F58F27;}
	.st295{clip-path:url(#SVGID_20_);fill:#F58E27;}
	.st296{clip-path:url(#SVGID_20_);fill:#F58D26;}
	.st297{clip-path:url(#SVGID_20_);fill:#F58C25;}
	.st298{clip-path:url(#SVGID_20_);fill:#F58B25;}
	.st299{clip-path:url(#SVGID_20_);fill:#F58A24;}
	.st300{clip-path:url(#SVGID_20_);fill:#F58924;}
	.st301{clip-path:url(#SVGID_20_);fill:#F48823;}
	.st302{clip-path:url(#SVGID_20_);fill:#F48722;}
	.st303{clip-path:url(#SVGID_20_);fill:#F48622;}
	.st304{clip-path:url(#SVGID_20_);fill:#F48521;}
	.st305{fill:#666666;}
	.st306{fill:#4D77A0;}
</style>
<g>
	<g>
		<g>
			<g id="XMLID_139_">
				<g id="XMLID_140_">
					<g>
						<defs>
							<polygon id="SVGID_1_" points="113.8,65.2 118.1,51.7 111.5,55.1 105.5,64.1 112.9,66.8 							"/>
						</defs>
						<clipPath id="SVGID_2_">
							<use xlink:href="#SVGID_1_"  style="overflow:visible;"/>
						</clipPath>
						<rect x="105.5" y="51.7" class="st0" width="12.6" height="3"/>
						<rect x="105.5" y="54.7" class="st0" width="12.6" height="0.3"/>
						<rect x="105.5" y="55" class="st1" width="12.6" height="0.3"/>
						<rect x="105.5" y="55.2" class="st2" width="12.6" height="0.3"/>
						<rect x="105.5" y="55.5" class="st3" width="12.6" height="0.3"/>
						<rect x="105.5" y="55.8" class="st4" width="12.6" height="0.3"/>
						<rect x="105.5" y="56" class="st5" width="12.6" height="0.3"/>
						<rect x="105.5" y="56.3" class="st6" width="12.6" height="0.3"/>
						<rect x="105.5" y="56.5" class="st7" width="12.6" height="0.3"/>
						<rect x="105.5" y="56.8" class="st8" width="12.6" height="0.3"/>
						<rect x="105.5" y="57.1" class="st9" width="12.6" height="0.3"/>
						<rect x="105.5" y="57.3" class="st10" width="12.6" height="0.3"/>
						<rect x="105.5" y="57.6" class="st11" width="12.6" height="0.3"/>
						<rect x="105.5" y="57.9" class="st12" width="12.6" height="0.3"/>
						<rect x="105.5" y="58.1" class="st13" width="12.6" height="0.3"/>
						<rect x="105.5" y="58.4" class="st14" width="12.6" height="0.3"/>
						<rect x="105.5" y="58.6" class="st15" width="12.6" height="0.3"/>
						<rect x="105.5" y="58.9" class="st16" width="12.6" height="0.3"/>
						<rect x="105.5" y="59.2" class="st17" width="12.6" height="0.3"/>
						<rect x="105.5" y="59.4" class="st18" width="12.6" height="0.3"/>
						<rect x="105.5" y="59.7" class="st19" width="12.6" height="0.3"/>
						<rect x="105.5" y="60" class="st20" width="12.6" height="0.3"/>
						<rect x="105.5" y="60.2" class="st21" width="12.6" height="0.3"/>
						<rect x="105.5" y="60.5" class="st22" width="12.6" height="0.3"/>
						<rect x="105.5" y="60.7" class="st23" width="12.6" height="0.3"/>
						<rect x="105.5" y="61" class="st24" width="12.6" height="0.3"/>
						<rect x="105.5" y="61.3" class="st25" width="12.6" height="0.3"/>
						<rect x="105.5" y="61.5" class="st26" width="12.6" height="0.3"/>
						<rect x="105.5" y="61.8" class="st27" width="12.6" height="0.3"/>
						<rect x="105.5" y="62" class="st28" width="12.6" height="0.3"/>
						<rect x="105.5" y="62.3" class="st29" width="12.6" height="0.3"/>
						<rect x="105.5" y="62.6" class="st30" width="12.6" height="0.3"/>
						<rect x="105.5" y="62.8" class="st30" width="12.6" height="3.9"/>
					</g>
				</g>
			</g>
			<g id="XMLID_122_">
				<g id="XMLID_137_">
					<path class="st31" d="M132.5,70.7l4-7.8v0h-3.3c-0.2,0-0.3-0.1-0.3-0.3v-1.7c0-0.2,0.1-0.3,0.3-0.3h6.5c0.2,0,0.3,0.1,0.3,0.3
						v0.2l-3.9,7.9v0h3.3c0.2,0,0.3,0.1,0.3,0.3v1.7c0,0.2-0.1,0.3-0.3,0.3h-6.6c-0.2,0-0.3-0.1-0.3-0.3V70.7z"/>
				</g>
				<g id="XMLID_135_">
					<path class="st31" d="M144.6,60.9c0-0.2,0.1-0.3,0.3-0.3h6.3c0.2,0,0.3,0.1,0.3,0.3v1.7c0,0.2-0.1,0.3-0.3,0.3H147v1.9h3.5
						c0.2,0,0.3,0.1,0.3,0.3v1.7c0,0.2-0.1,0.3-0.3,0.3H147V69h4.2c0.2,0,0.3,0.1,0.3,0.3v1.7c0,0.2-0.1,0.3-0.3,0.3h-6.3
						c-0.2,0-0.3-0.1-0.3-0.3V60.9z"/>
				</g>
				<g id="XMLID_133_">
					<path class="st31" d="M155.5,60.7c0-0.2,0.1-0.3,0.3-0.3h0.4l6.1,5.8h0v-5.4c0-0.2,0.1-0.3,0.3-0.3h1.8c0.2,0,0.3,0.1,0.3,0.3
						v10.2c0,0.2-0.1,0.3-0.3,0.3h-0.2c0,0-0.2,0-0.2-0.1l-6-6h0v5.7c0,0.2-0.1,0.3-0.3,0.3h-1.8c-0.2,0-0.3-0.1-0.3-0.3L155.5,60.7
						z"/>
				</g>
				<g id="XMLID_131_">
					<path class="st31" d="M169.2,60.9c0-0.2,0.1-0.3,0.3-0.3h6.3c0.2,0,0.3,0.1,0.3,0.3v1.7c0,0.2-0.1,0.3-0.3,0.3h-4.2v1.9h3.5
						c0.2,0,0.3,0.1,0.3,0.3v1.7c0,0.2-0.1,0.3-0.3,0.3h-3.5V69h4.2c0.2,0,0.3,0.1,0.3,0.3v1.7c0,0.2-0.1,0.3-0.3,0.3h-6.3
						c-0.2,0-0.3-0.1-0.3-0.3V60.9z"/>
				</g>
				<g id="XMLID_129_">
					<path class="st31" d="M180.1,60.9c0-0.2,0.1-0.3,0.3-0.3h6.3c0.2,0,0.3,0.1,0.3,0.3v1.7c0,0.2-0.1,0.3-0.3,0.3h-4.2V65h3.5
						c0.2,0,0.3,0.1,0.3,0.3V67c0,0.2-0.1,0.3-0.3,0.3h-3.5v3.7c0,0.2-0.1,0.3-0.3,0.3h-1.8c-0.2,0-0.3-0.1-0.3-0.3V60.9z"/>
				</g>
				<g id="XMLID_127_">
					<path class="st31" d="M190.6,60.9c0-0.2,0.1-0.3,0.3-0.3h1.8c0.2,0,0.3,0.1,0.3,0.3v10.1c0,0.2-0.1,0.3-0.3,0.3h-1.8
						c-0.2,0-0.3-0.1-0.3-0.3V60.9z"/>
				</g>
				<g id="XMLID_125_">
					<path class="st31" d="M198.9,62.8h-2.2c-0.2,0-0.3-0.1-0.3-0.3v-1.7c0-0.2,0.1-0.3,0.3-0.3h6.7c0.2,0,0.3,0.1,0.3,0.3v1.7
						c0,0.2-0.1,0.3-0.3,0.3h-2.2v8.1c0,0.2-0.1,0.3-0.3,0.3h-1.8c-0.2,0-0.3-0.1-0.3-0.3V62.8z"/>
				</g>
				<g id="XMLID_123_">
					<path class="st31" d="M206.7,69.8l0.7-1.3c0.1-0.2,0.4-0.2,0.5-0.1c0.1,0,1.2,0.8,2.2,0.8c0.6,0,1-0.4,1-0.9
						c0-0.6-0.5-1.1-1.6-1.5c-1.3-0.5-2.9-1.5-2.9-3.4c0-1.5,1.2-3,3.5-3c1.6,0,2.8,0.8,3.2,1.1c0.2,0.1,0.2,0.4,0.1,0.5l-0.8,1.2
						c-0.1,0.2-0.4,0.3-0.5,0.2c-0.1-0.1-1.2-0.9-2.2-0.9c-0.5,0-1,0.4-1,0.8c0,0.6,0.5,1,1.7,1.5c1.2,0.5,3.1,1.4,3.1,3.5
						c0,1.6-1.4,3.1-3.6,3.1c-2,0-3.1-0.8-3.4-1.2C206.6,70.1,206.6,70,206.7,69.8z"/>
				</g>
			</g>
			<g>
				<polygon class="st32" points="121.4,71.5 117.5,66.4 117.7,64.9 128.1,53.4 119.8,53.9 109.7,62.7 101.6,60.6 98.5,63.1 
					92.6,63 97.5,63.8 104.1,65.8 106,69.3 113.4,72.7 118.9,72.7 120.5,77.9 126.1,77.9 121.3,71.8 				"/>
			</g>
			<g id="XMLID_121_">
				<g>
					<defs>
						<polygon id="SVGID_3_" points="118.9,72.7 120.8,72.7 119.1,73.3 						"/>
					</defs>
					<clipPath id="SVGID_4_">
						<use xlink:href="#SVGID_3_"  style="overflow:visible;"/>
					</clipPath>
					<polygon class="st33" points="118.9,73.1 118.9,73.3 118.9,73.3 					"/>
					<polygon class="st34" points="118.9,72.7 119,73.3 118.9,73.3 118.9,73.1 118.9,72.7 					"/>
					<polygon class="st35" points="119,72.7 119,73.3 119,73.3 118.9,72.7 					"/>
					<polygon class="st36" points="119,72.7 119.1,73.3 119,73.3 119,72.7 					"/>
					<polygon class="st37" points="119.1,72.7 119.1,73.3 119.1,73.3 119,72.7 					"/>
					<polygon class="st38" points="119.1,72.7 119.2,73.3 119.1,73.3 119.1,72.7 					"/>
					<polygon class="st39" points="119.2,72.7 119.2,73.3 119.2,73.3 119.1,72.7 					"/>
					<polygon class="st40" points="119.2,72.7 119.3,73.3 119.2,73.3 119.2,72.7 					"/>
					<polygon class="st41" points="119.3,72.7 119.3,73.3 119.3,73.3 119.2,72.7 					"/>
					<polygon class="st42" points="119.3,72.7 119.4,73.3 119.3,73.3 119.3,72.7 					"/>
					<polygon class="st43" points="119.4,72.7 119.4,73.3 119.4,73.3 119.3,72.7 					"/>
					<polygon class="st44" points="119.4,72.7 119.5,73.3 119.4,73.3 119.4,72.7 					"/>
					<polygon class="st45" points="119.5,72.7 119.5,73.3 119.5,73.3 119.4,72.7 					"/>
					<polygon class="st46" points="119.5,72.7 119.6,73.3 119.5,73.3 119.5,72.7 					"/>
					<polygon class="st47" points="119.6,72.7 119.6,73.3 119.6,73.3 119.5,72.7 					"/>
					<polygon class="st48" points="119.6,72.7 119.7,73.3 119.6,73.3 119.6,72.7 					"/>
					<polygon class="st49" points="119.7,72.7 119.7,73.3 119.7,73.3 119.6,72.7 					"/>
					<polygon class="st50" points="119.7,72.7 119.8,73.3 119.7,73.3 119.7,72.7 					"/>
					<polygon class="st51" points="119.8,72.7 119.8,73.3 119.8,73.3 119.7,72.7 					"/>
					<polygon class="st52" points="119.8,72.7 119.9,73.3 119.8,73.3 119.8,72.7 					"/>
					<polygon class="st53" points="119.9,72.7 119.9,73.3 119.9,73.3 119.8,72.7 					"/>
					<polygon class="st54" points="119.9,72.7 120,73.3 119.9,73.3 119.9,72.7 					"/>
					<polygon class="st55" points="120,72.7 120,73.3 120,73.3 119.9,72.7 					"/>
					<polygon class="st56" points="120,72.7 120.1,73.3 120,73.3 120,72.7 					"/>
					<polygon class="st57" points="120.1,72.7 120.1,73.3 120.1,73.3 120,72.7 					"/>
					<polygon class="st58" points="120.1,72.7 120.2,73.3 120.1,73.3 120.1,72.7 					"/>
					<polygon class="st59" points="120.2,72.7 120.2,73.3 120.2,73.3 120.1,72.7 					"/>
					<polygon class="st60" points="120.2,72.7 120.3,73.3 120.2,73.3 120.2,72.7 					"/>
					<polygon class="st61" points="120.3,72.7 120.3,73.3 120.3,73.3 120.2,72.7 					"/>
					<polygon class="st62" points="120.3,72.7 120.4,73.3 120.3,73.3 120.3,72.7 					"/>
					<polygon class="st63" points="120.4,72.7 120.4,73.3 120.4,73.3 120.3,72.7 					"/>
					<polygon class="st64" points="120.4,72.7 120.5,73.3 120.4,73.3 120.4,72.7 					"/>
					<polygon class="st65" points="120.5,72.7 120.5,73.3 120.5,73.3 120.4,72.7 					"/>
					<polygon class="st66" points="120.6,72.7 120.6,73.3 120.5,73.3 120.5,72.7 					"/>
					<polygon class="st67" points="120.6,72.7 120.6,73.3 120.6,73.3 120.6,72.7 					"/>
					<polygon class="st68" points="120.7,72.7 120.7,73.3 120.6,73.3 120.6,72.7 					"/>
					<polygon class="st69" points="120.7,72.7 120.8,73.3 120.7,73.3 120.7,72.7 					"/>
					<polygon class="st70" points="120.8,72.7 120.8,72.9 120.8,73.3 120.8,73.3 120.7,72.7 					"/>
					<polygon class="st71" points="120.8,72.9 120.8,72.7 120.8,72.7 					"/>
				</g>
			</g>
			<g id="XMLID_120_">
				<g>
					<defs>
						<polygon id="SVGID_5_" points="120.5,77.9 121.7,72.3 121.3,71.8 						"/>
					</defs>
					<clipPath id="SVGID_6_">
						<use xlink:href="#SVGID_5_"  style="overflow:visible;"/>
					</clipPath>
					<polygon class="st72" points="121.7,71.9 121.6,71.8 121.7,71.8 					"/>
					<polygon class="st73" points="121.7,72 121.2,71.8 121.6,71.8 121.7,71.9 					"/>
					<polygon class="st74" points="121.7,72.2 120.8,71.8 121.2,71.8 121.7,72 					"/>
					<polygon class="st75" points="121.7,72.3 120.5,71.9 120.5,71.8 120.8,71.8 121.7,72.2 					"/>
					<polygon class="st76" points="121.7,72.4 120.5,72 120.5,71.9 121.7,72.3 					"/>
					<polygon class="st77" points="121.7,72.6 120.5,72.1 120.5,72 121.7,72.4 					"/>
					<polygon class="st78" points="121.7,72.7 120.5,72.3 120.5,72.1 121.7,72.6 					"/>
					<polygon class="st79" points="121.7,72.9 120.5,72.4 120.5,72.3 121.7,72.7 					"/>
					<polygon class="st80" points="121.7,73 120.5,72.6 120.5,72.4 121.7,72.9 					"/>
					<polygon class="st81" points="121.7,73.1 120.5,72.7 120.5,72.6 121.7,73 					"/>
					<polygon class="st82" points="121.7,73.3 120.5,72.8 120.5,72.7 121.7,73.1 					"/>
					<polygon class="st83" points="121.7,73.4 120.5,73 120.5,72.8 121.7,73.3 					"/>
					<polygon class="st84" points="121.7,73.5 120.5,73.1 120.5,73 121.7,73.4 					"/>
					<polygon class="st85" points="121.7,73.7 120.5,73.2 120.5,73.1 121.7,73.5 					"/>
					<polygon class="st86" points="121.7,73.8 120.5,73.4 120.5,73.2 121.7,73.7 					"/>
					<polygon class="st87" points="121.7,74 120.5,73.5 120.5,73.4 121.7,73.8 					"/>
					<polygon class="st88" points="121.7,74.1 120.5,73.7 120.5,73.5 121.7,74 					"/>
					<polygon class="st89" points="121.7,74.2 120.5,73.8 120.5,73.7 121.7,74.1 					"/>
					<polygon class="st90" points="121.7,74.4 120.5,73.9 120.5,73.8 121.7,74.2 					"/>
					<polygon class="st91" points="121.7,74.5 120.5,74.1 120.5,73.9 121.7,74.4 					"/>
					<polygon class="st92" points="121.7,74.6 120.5,74.2 120.5,74.1 121.7,74.5 					"/>
					<polygon class="st93" points="121.7,74.8 120.5,74.3 120.5,74.2 121.7,74.6 					"/>
					<polygon class="st94" points="121.7,74.9 120.5,74.5 120.5,74.3 121.7,74.8 					"/>
					<polygon class="st95" points="121.7,75 120.5,74.6 120.5,74.5 121.7,74.9 					"/>
					<polygon class="st96" points="121.7,75.2 120.5,74.8 120.5,74.6 121.7,75 					"/>
					<polygon class="st97" points="121.7,75.3 120.5,74.9 120.5,74.8 121.7,75.2 					"/>
					<polygon class="st98" points="121.7,75.5 120.5,75 120.5,74.9 121.7,75.3 					"/>
					<polygon class="st99" points="121.7,75.6 120.5,75.2 120.5,75 121.7,75.5 					"/>
					<polygon class="st100" points="121.7,75.7 120.5,75.3 120.5,75.2 121.7,75.6 					"/>
					<polygon class="st101" points="121.7,75.9 120.5,75.4 120.5,75.3 121.7,75.7 					"/>
					<polygon class="st102" points="121.7,76 120.5,75.6 120.5,75.4 121.7,75.9 					"/>
					<polygon class="st102" points="120.5,75.6 121.7,76 121.7,77.9 120.5,77.9 					"/>
				</g>
			</g>
			<g id="XMLID_119_">
				<g>
					<defs>
						<path id="SVGID_7_" d="M104.1,65.8"/>
					</defs>
					<clipPath id="SVGID_8_">
						<use xlink:href="#SVGID_7_"  style="overflow:visible;"/>
					</clipPath>
				</g>
			</g>
			<g id="XMLID_118_">
				<g>
					<defs>
						<polygon id="SVGID_9_" points="97.7,63.7 98,63.1 98.5,63.1 						"/>
					</defs>
					<clipPath id="SVGID_10_">
						<use xlink:href="#SVGID_9_"  style="overflow:visible;"/>
					</clipPath>
					<polygon class="st103" points="98.5,63.1 98.5,63.1 98.5,63.1 					"/>
					<polygon class="st104" points="98.5,63.1 98.5,63.1 98.5,63.1 98.5,63.1 					"/>
					<polygon class="st105" points="98.5,63.1 98.4,63.1 98.5,63.1 98.5,63.1 					"/>
					<polygon class="st106" points="98.5,63.2 98.4,63.1 98.4,63.1 98.5,63.1 					"/>
					<polygon class="st107" points="98.5,63.2 98.4,63.1 98.4,63.1 98.5,63.2 					"/>
					<polygon class="st108" points="98.5,63.2 98.4,63.1 98.4,63.1 98.5,63.2 					"/>
					<polygon class="st109" points="98.5,63.2 98.3,63.1 98.4,63.1 98.5,63.2 					"/>
					<polygon class="st110" points="98.5,63.2 98.3,63.1 98.3,63.1 98.5,63.2 					"/>
					<polygon class="st111" points="98.5,63.2 98.3,63.1 98.3,63.1 98.5,63.2 					"/>
					<polygon class="st112" points="98.5,63.2 98.3,63.1 98.3,63.1 98.5,63.2 					"/>
					<polygon class="st113" points="98.5,63.3 98.2,63.1 98.3,63.1 98.5,63.2 					"/>
					<polygon class="st114" points="98.5,63.3 98.2,63.1 98.2,63.1 98.5,63.3 					"/>
					<polygon class="st115" points="98.5,63.3 98.2,63.1 98.2,63.1 98.5,63.3 					"/>
					<polygon class="st116" points="98.5,63.3 98.2,63.1 98.2,63.1 98.5,63.3 					"/>
					<polygon class="st117" points="98.5,63.3 98.1,63.1 98.2,63.1 98.5,63.3 					"/>
					<polygon class="st118" points="98.5,63.3 98.1,63.1 98.1,63.1 98.5,63.3 					"/>
					<polygon class="st119" points="98.5,63.4 98.1,63.1 98.1,63.1 98.5,63.3 					"/>
					<polygon class="st120" points="98.5,63.4 98.1,63.1 98.1,63.1 98.5,63.4 					"/>
					<polygon class="st121" points="98.5,63.4 98,63.1 98.1,63.1 98.5,63.4 					"/>
					<polygon class="st122" points="98.5,63.4 98,63.1 98,63.1 98.5,63.4 					"/>
					<polygon class="st123" points="98.5,63.4 98,63.1 98,63.1 98.5,63.4 					"/>
					<polygon class="st124" points="98.5,63.4 98,63.1 98,63.1 98.5,63.4 					"/>
					<polygon class="st125" points="98.5,63.4 97.9,63.1 98,63.1 98.5,63.4 					"/>
					<polygon class="st126" points="98.5,63.5 97.9,63.1 97.9,63.1 98.5,63.4 					"/>
					<polygon class="st127" points="98.5,63.5 97.9,63.1 97.9,63.1 98.5,63.5 					"/>
					<polygon class="st128" points="98.5,63.5 97.9,63.1 97.9,63.1 98.5,63.5 					"/>
					<polygon class="st129" points="98.5,63.5 97.8,63.1 97.9,63.1 98.5,63.5 					"/>
					<polygon class="st130" points="98.5,63.5 97.8,63.1 97.8,63.1 98.5,63.5 					"/>
					<polygon class="st131" points="98.5,63.5 97.8,63.1 97.8,63.1 98.5,63.5 					"/>
					<polygon class="st132" points="98.5,63.6 97.8,63.1 97.8,63.1 98.5,63.5 					"/>
					<polygon class="st133" points="98.5,63.6 97.7,63.1 97.8,63.1 98.5,63.6 					"/>
					<polygon class="st134" points="98.5,63.6 97.7,63.1 97.7,63.1 98.5,63.6 					"/>
					<polygon class="st135" points="98.5,63.6 97.7,63.1 97.7,63.1 98.5,63.6 					"/>
					<polygon class="st136" points="98.5,63.6 97.7,63.1 97.7,63.1 98.5,63.6 					"/>
					<polygon class="st137" points="98.5,63.6 97.7,63.1 97.7,63.1 97.7,63.1 98.5,63.6 					"/>
					<polygon class="st138" points="98.5,63.7 97.7,63.1 97.7,63.1 98.5,63.6 					"/>
					<polygon class="st139" points="98.5,63.7 97.7,63.1 97.7,63.1 98.5,63.7 					"/>
					<polygon class="st140" points="98.5,63.7 97.7,63.2 97.7,63.1 98.5,63.7 98.5,63.7 					"/>
					<polygon class="st141" points="98.5,63.7 97.7,63.2 97.7,63.2 98.5,63.7 					"/>
					<polygon class="st142" points="98.4,63.7 97.7,63.2 97.7,63.2 98.5,63.7 					"/>
					<polygon class="st143" points="98.4,63.7 97.7,63.2 97.7,63.2 98.4,63.7 					"/>
					<polygon class="st143" points="97.7,63.2 98.4,63.7 97.7,63.7 					"/>
				</g>
			</g>
			<g id="XMLID_117_">
				<g>
					<defs>
						<path id="SVGID_11_" d="M104.1,65.8"/>
					</defs>
					<clipPath id="SVGID_12_">
						<use xlink:href="#SVGID_11_"  style="overflow:visible;"/>
					</clipPath>
				</g>
			</g>
			<g id="XMLID_116_">
				<g>
					<defs>
						<polygon id="SVGID_13_" points="103.5,65.6 101.7,60.7 104.1,65.8 						"/>
					</defs>
					<clipPath id="SVGID_14_">
						<use xlink:href="#SVGID_13_"  style="overflow:visible;"/>
					</clipPath>
					<polygon class="st144" points="103.9,65.8 104.1,65.7 104.1,65.8 					"/>
					<polygon class="st145" points="103.7,65.8 104.1,65.6 104.1,65.7 103.9,65.8 					"/>
					<polygon class="st146" points="103.5,65.8 104.1,65.5 104.1,65.6 103.7,65.8 					"/>
					<polygon class="st147" points="103.3,65.8 104.1,65.4 104.1,65.5 103.5,65.8 					"/>
					<polygon class="st148" points="103,65.8 104.1,65.3 104.1,65.4 103.3,65.8 					"/>
					<polygon class="st149" points="102.8,65.8 104.1,65.3 104.1,65.3 103,65.8 					"/>
					<polygon class="st150" points="102.6,65.8 104.1,65.2 104.1,65.3 102.8,65.8 					"/>
					<polygon class="st151" points="102.3,65.8 104.1,65.1 104.1,65.2 102.6,65.8 					"/>
					<polygon class="st152" points="102.1,65.8 104.1,65 104.1,65.1 102.3,65.8 					"/>
					<polygon class="st153" points="101.9,65.8 104.1,64.9 104.1,65 102.1,65.8 					"/>
					<polygon class="st154" points="101.7,65.8 104.1,64.8 104.1,64.9 101.9,65.8 101.7,65.8 					"/>
					<polygon class="st155" points="101.7,65.7 104.1,64.7 104.1,64.8 101.7,65.8 					"/>
					<polygon class="st156" points="101.7,65.6 104.1,64.6 104.1,64.7 101.7,65.7 					"/>
					<polygon class="st157" points="101.7,65.5 104.1,64.5 104.1,64.6 101.7,65.6 					"/>
					<polygon class="st158" points="101.7,65.4 104.1,64.4 104.1,64.5 101.7,65.5 					"/>
					<polygon class="st159" points="101.7,65.3 104.1,64.3 104.1,64.4 101.7,65.4 					"/>
					<polygon class="st160" points="101.7,65.2 104.1,64.2 104.1,64.3 101.7,65.3 					"/>
					<polygon class="st161" points="101.7,65.1 104.1,64.2 104.1,64.2 101.7,65.2 					"/>
					<polygon class="st162" points="101.7,65 104.1,64.1 104.1,64.2 101.7,65.1 					"/>
					<polygon class="st163" points="101.7,65 104.1,64 104.1,64.1 101.7,65 					"/>
					<polygon class="st164" points="101.7,64.9 104.1,63.9 104.1,64 101.7,65 					"/>
					<polygon class="st165" points="101.7,64.8 104.1,63.8 104.1,63.9 101.7,64.9 					"/>
					<polygon class="st166" points="101.7,64.7 104.1,63.7 104.1,63.8 101.7,64.8 					"/>
					<polygon class="st167" points="101.7,64.6 104.1,63.6 104.1,63.7 101.7,64.7 					"/>
					<polygon class="st168" points="101.7,64.5 104.1,63.5 104.1,63.6 101.7,64.6 					"/>
					<polygon class="st169" points="101.7,64.4 104.1,63.4 104.1,63.5 101.7,64.5 					"/>
					<polygon class="st170" points="101.7,64.3 104.1,63.3 104.1,63.4 101.7,64.4 					"/>
					<polygon class="st171" points="101.7,64.2 104.1,63.2 104.1,63.3 101.7,64.3 					"/>
					<polygon class="st172" points="101.7,64.1 104.1,63.2 104.1,63.2 101.7,64.2 					"/>
					<polygon class="st173" points="101.7,64 104.1,63.1 104.1,63.2 101.7,64.1 					"/>
					<polygon class="st174" points="101.7,63.9 104.1,63 104.1,63.1 101.7,64 					"/>
					<polygon class="st175" points="101.7,63.9 104.1,62.9 104.1,63 101.7,63.9 					"/>
					<polygon class="st176" points="101.7,63.8 104.1,62.8 104.1,62.9 101.7,63.9 					"/>
					<polygon class="st177" points="101.7,63.7 104.1,62.7 104.1,62.8 101.7,63.8 					"/>
					<polygon class="st178" points="101.7,63.6 104.1,62.6 104.1,62.7 101.7,63.7 					"/>
					<polygon class="st179" points="101.7,63.5 104.1,62.5 104.1,62.6 101.7,63.6 					"/>
					<polygon class="st180" points="101.7,63.4 104.1,62.4 104.1,62.5 101.7,63.5 					"/>
					<polygon class="st181" points="101.7,63.3 104.1,62.3 104.1,62.4 101.7,63.4 					"/>
					<polygon class="st182" points="101.7,63.2 104.1,62.2 104.1,62.3 101.7,63.3 					"/>
					<polygon class="st183" points="101.7,63.1 104.1,62.2 104.1,62.2 101.7,63.2 					"/>
					<polygon class="st183" points="104.1,62.2 101.7,63.1 101.7,60.7 104.1,60.7 					"/>
				</g>
			</g>
			<g id="XMLID_115_">
				<g>
					<defs>
						<polygon id="SVGID_15_" points="109.7,62.7 106,69.3 109.1,62.6 						"/>
					</defs>
					<clipPath id="SVGID_16_">
						<use xlink:href="#SVGID_15_"  style="overflow:visible;"/>
					</clipPath>
					<polygon class="st184" points="109.7,62.7 109.5,62.6 109.7,62.6 					"/>
					<polygon class="st185" points="109.7,62.9 109.1,62.6 109.5,62.6 109.7,62.7 					"/>
					<polygon class="st186" points="109.7,63 108.7,62.6 109.1,62.6 109.7,62.9 					"/>
					<polygon class="st187" points="109.7,63.2 108.4,62.6 108.7,62.6 109.7,63 					"/>
					<polygon class="st188" points="109.7,63.4 108,62.6 108.4,62.6 109.7,63.2 					"/>
					<polygon class="st189" points="109.7,63.6 107.6,62.6 108,62.6 109.7,63.4 					"/>
					<polygon class="st190" points="109.7,63.8 107.2,62.6 107.6,62.6 109.7,63.6 					"/>
					<polygon class="st191" points="109.7,64 106.8,62.6 106.8,62.6 107.2,62.6 109.7,63.8 					"/>
					<polygon class="st192" points="109.7,64.2 106.7,62.7 106.8,62.6 109.7,64 					"/>
					<polygon class="st193" points="109.7,64.4 106.7,62.9 106.7,62.7 109.7,64.2 					"/>
					<polygon class="st194" points="109.7,64.6 106.6,63 106.7,62.9 109.7,64.4 					"/>
					<polygon class="st195" points="109.7,64.8 106.5,63.2 106.6,63 109.7,64.6 					"/>
					<polygon class="st196" points="109.7,65 106.4,63.3 106.5,63.2 109.7,64.8 					"/>
					<polygon class="st197" points="109.7,65.2 106.4,63.5 106.4,63.3 109.7,65 					"/>
					<polygon class="st198" points="109.7,65.4 106.3,63.7 106.4,63.5 109.7,65.2 					"/>
					<polygon class="st199" points="109.7,65.5 106.2,63.8 106.3,63.7 109.7,65.4 					"/>
					<polygon class="st200" points="109.7,65.7 106.1,64 106.2,63.8 109.7,65.5 					"/>
					<polygon class="st201" points="109.7,65.9 106.1,64.1 106.1,64 109.7,65.7 					"/>
					<polygon class="st202" points="109.7,66.1 106,64.3 106.1,64.1 109.7,65.9 					"/>
					<polygon class="st203" points="109.7,66.3 106,64.5 106,64.3 106,64.3 109.7,66.1 					"/>
					<polygon class="st204" points="109.7,66.5 106,64.6 106,64.5 109.7,66.3 					"/>
					<polygon class="st205" points="109.7,66.7 106,64.8 106,64.6 109.7,66.5 					"/>
					<polygon class="st206" points="109.7,66.9 106,65 106,64.8 109.7,66.7 					"/>
					<polygon class="st207" points="109.7,67.1 106,65.2 106,65 109.7,66.9 					"/>
					<polygon class="st208" points="109.7,67.3 109.7,67.3 106,65.4 106,65.2 109.7,67.1 					"/>
					<polygon class="st209" points="109.7,67.3 109.6,67.4 106,65.6 106,65.4 					"/>
					<polygon class="st210" points="109.6,67.4 109.5,67.6 106,65.8 106,65.6 					"/>
					<polygon class="st211" points="109.5,67.6 109.5,67.7 106,66 106,65.8 					"/>
					<polygon class="st212" points="109.5,67.7 109.4,67.9 106,66.2 106,66 					"/>
					<polygon class="st213" points="109.4,67.9 109.3,68 106,66.4 106,66.2 					"/>
					<polygon class="st214" points="109.3,68 109.2,68.2 106,66.6 106,66.4 					"/>
					<polygon class="st215" points="109.2,68.2 109.2,68.3 106,66.8 106,66.6 					"/>
					<polygon class="st216" points="109.2,68.3 109.1,68.5 106,66.9 106,66.8 					"/>
					<polygon class="st217" points="109.1,68.5 109,68.7 106,67.1 106,66.9 					"/>
					<polygon class="st218" points="109,68.7 108.9,68.8 106,67.3 106,67.1 					"/>
					<polygon class="st219" points="108.9,68.8 108.9,69 106,67.5 106,67.3 					"/>
					<polygon class="st220" points="108.9,69 108.8,69.1 106,67.7 106,67.5 					"/>
					<polygon class="st221" points="108.8,69.1 108.7,69.3 106,67.9 106,67.7 					"/>
					<polygon class="st222" points="108.7,69.3 108.7,69.3 108.5,69.3 106,68.1 106,67.9 					"/>
					<polygon class="st223" points="108.1,69.3 106,68.3 106,68.1 108.5,69.3 					"/>
					<polygon class="st223" points="106,68.3 108.1,69.3 106,69.3 					"/>
				</g>
			</g>
			<g id="XMLID_114_">
				<g>
					<defs>
						<polygon id="SVGID_17_" points="117.7,64.9 119.7,54.3 118.5,64 						"/>
					</defs>
					<clipPath id="SVGID_18_">
						<use xlink:href="#SVGID_17_"  style="overflow:visible;"/>
					</clipPath>
					<polygon class="st224" points="119.4,64.9 119.7,64.9 119.7,64.9 					"/>
					<polygon class="st225" points="119,64.9 119.7,64.8 119.7,64.9 119.4,64.9 					"/>
					<polygon class="st226" points="118.6,64.9 119.7,64.7 119.7,64.8 119,64.9 					"/>
					<polygon class="st227" points="118.2,64.9 119.7,64.6 119.7,64.7 118.6,64.9 					"/>
					<polygon class="st228" points="117.8,64.9 119.7,64.5 119.7,64.6 118.2,64.9 					"/>
					<polygon class="st229" points="117.7,64.8 119.7,64.4 119.7,64.5 117.8,64.9 117.7,64.9 					"/>
					<polygon class="st230" points="117.7,64.7 119.7,64.3 119.7,64.4 117.7,64.8 					"/>
					<polygon class="st231" points="117.7,64.6 119.7,64.2 119.7,64.3 117.7,64.7 					"/>
					<polygon class="st232" points="117.7,64.5 119.7,64.1 119.7,64.2 117.7,64.6 					"/>
					<polygon class="st233" points="117.7,64.4 119.7,64 119.7,64.1 117.7,64.5 					"/>
					<polygon class="st234" points="117.7,64.3 119.7,63.9 119.7,64 117.7,64.4 					"/>
					<polygon class="st235" points="117.7,64.2 119.7,63.8 119.7,63.9 117.7,64.3 					"/>
					<polygon class="st236" points="117.7,64.1 119.7,63.7 119.7,63.8 117.7,64.2 					"/>
					<polygon class="st237" points="117.7,64 119.7,63.6 119.7,63.7 117.7,64.1 					"/>
					<polygon class="st238" points="117.7,63.9 119.7,63.5 119.7,63.6 117.7,64 					"/>
					<polygon class="st239" points="117.7,63.8 119.7,63.4 119.7,63.5 117.7,63.9 					"/>
					<polygon class="st240" points="117.7,63.7 119.7,63.3 119.7,63.4 117.7,63.8 					"/>
					<polygon class="st241" points="117.7,63.6 119.7,63.2 119.7,63.3 117.7,63.7 					"/>
					<polygon class="st242" points="117.7,63.5 119.7,63.1 119.7,63.2 117.7,63.6 					"/>
					<polygon class="st243" points="117.7,63.4 119.7,63 119.7,63.1 117.7,63.5 					"/>
					<polygon class="st244" points="117.7,63.3 119.7,62.9 119.7,63 117.7,63.4 					"/>
					<polygon class="st245" points="117.7,63.2 119.7,62.8 119.7,62.9 117.7,63.3 					"/>
					<polygon class="st246" points="117.7,63.1 119.7,62.7 119.7,62.8 117.7,63.2 					"/>
					<polygon class="st247" points="117.7,63 119.7,62.6 119.7,62.7 117.7,63.1 					"/>
					<polygon class="st248" points="117.7,62.9 119.7,62.5 119.7,62.6 117.7,63 					"/>
					<polygon class="st249" points="117.7,62.8 119.7,62.4 119.7,62.5 117.7,62.9 					"/>
					<polygon class="st250" points="117.7,62.7 119.7,62.3 119.7,62.4 117.7,62.8 					"/>
					<polygon class="st251" points="117.7,62.6 119.7,62.2 119.7,62.3 117.7,62.7 					"/>
					<polygon class="st252" points="117.7,62.5 119.7,62.1 119.7,62.2 117.7,62.6 					"/>
					<polygon class="st253" points="117.7,62.4 119.7,62 119.7,62.1 117.7,62.5 					"/>
					<polygon class="st254" points="117.7,62.3 119.7,61.9 119.7,62 117.7,62.4 					"/>
					<polygon class="st255" points="117.7,62.2 119.7,61.8 119.7,61.9 117.7,62.3 					"/>
					<polygon class="st256" points="117.7,62.1 119.7,61.7 119.7,61.8 117.7,62.2 					"/>
					<polygon class="st257" points="117.7,62 119.7,61.6 119.7,61.7 117.7,62.1 					"/>
					<polygon class="st258" points="117.7,61.9 119.7,61.5 119.7,61.6 117.7,62 					"/>
					<polygon class="st259" points="117.7,61.8 119.7,61.4 119.7,61.5 117.7,61.9 					"/>
					<polygon class="st260" points="117.7,61.7 119.7,61.3 119.7,61.4 117.7,61.8 					"/>
					<polygon class="st261" points="117.7,61.6 119.7,61.2 119.7,61.3 117.7,61.7 					"/>
					<polygon class="st262" points="117.7,61.5 119.7,61.1 119.7,61.2 117.7,61.6 					"/>
					<polygon class="st262" points="119.7,61.1 117.7,61.5 117.7,54.3 119.7,54.3 					"/>
				</g>
			</g>
			<g id="XMLID_113_">
				<g>
					<defs>
						<polygon id="SVGID_19_" points="113.5,72.6 117.9,67 117.5,66.4 						"/>
					</defs>
					<clipPath id="SVGID_20_">
						<use xlink:href="#SVGID_19_"  style="overflow:visible;"/>
					</clipPath>
					<polygon class="st263" points="115.1,72.6 117.9,67.3 117.9,72.6 					"/>
					<polygon class="st263" points="115,72.6 117.9,67.2 117.9,67.3 115.1,72.6 					"/>
					<polygon class="st264" points="115,72.6 117.9,67.2 117.9,67.2 115,72.6 					"/>
					<polygon class="st265" points="115,72.6 117.9,67.1 117.9,67.2 115,72.6 					"/>
					<polygon class="st266" points="115,72.6 117.9,67.1 117.9,67.1 115,72.6 					"/>
					<polygon class="st267" points="114.9,72.6 117.9,67 117.9,67.1 115,72.6 					"/>
					<polygon class="st268" points="114.9,72.6 117.9,67 117.9,67 114.9,72.6 					"/>
					<polygon class="st269" points="114.9,72.6 117.9,66.9 117.9,67 114.9,72.6 					"/>
					<polygon class="st270" points="114.9,72.6 117.9,66.9 117.9,66.9 114.9,72.6 					"/>
					<polygon class="st271" points="114.8,72.6 117.9,66.9 117.9,66.9 114.9,72.6 					"/>
					<polygon class="st272" points="114.8,72.6 117.9,66.8 117.9,66.9 114.8,72.6 					"/>
					<polygon class="st273" points="114.8,72.6 117.9,66.8 117.9,66.8 114.8,72.6 					"/>
					<polygon class="st274" points="114.8,72.6 117.9,66.7 117.9,66.8 114.8,72.6 					"/>
					<polygon class="st275" points="114.7,72.6 117.9,66.7 117.9,66.7 114.8,72.6 					"/>
					<polygon class="st276" points="114.7,72.6 117.9,66.6 117.9,66.7 114.7,72.6 					"/>
					<polygon class="st277" points="114.7,72.6 117.9,66.6 117.9,66.6 114.7,72.6 					"/>
					<polygon class="st278" points="114.7,72.6 117.9,66.5 117.9,66.6 114.7,72.6 					"/>
					<polygon class="st279" points="114.6,72.6 117.9,66.5 117.9,66.5 114.7,72.6 					"/>
					<polygon class="st280" points="114.6,72.6 117.9,66.4 117.9,66.5 114.6,72.6 					"/>
					<polygon class="st281" points="114.6,72.6 117.9,66.4 117.9,66.4 117.9,66.4 114.6,72.6 					"/>
					<polygon class="st282" points="114.6,72.6 117.9,66.4 117.9,66.4 114.6,72.6 					"/>
					<polygon class="st283" points="114.5,72.6 117.9,66.4 117.9,66.4 114.6,72.6 					"/>
					<polygon class="st284" points="114.5,72.6 117.8,66.4 117.9,66.4 114.5,72.6 					"/>
					<polygon class="st285" points="114.5,72.6 117.8,66.4 117.8,66.4 114.5,72.6 					"/>
					<polygon class="st286" points="114.5,72.6 117.8,66.4 117.8,66.4 114.5,72.6 					"/>
					<polygon class="st287" points="114.4,72.6 117.8,66.4 117.8,66.4 114.5,72.6 					"/>
					<polygon class="st288" points="114.4,72.6 117.7,66.4 117.8,66.4 114.4,72.6 					"/>
					<polygon class="st289" points="114.4,72.6 117.7,66.4 117.7,66.4 114.4,72.6 					"/>
					<polygon class="st290" points="114.4,72.6 117.7,66.4 117.7,66.4 114.4,72.6 					"/>
					<polygon class="st291" points="114.3,72.6 117.7,66.4 117.7,66.4 114.4,72.6 					"/>
					<polygon class="st292" points="114.3,72.6 117.6,66.4 117.7,66.4 114.3,72.6 					"/>
					<polygon class="st293" points="114.3,72.6 117.6,66.4 117.6,66.4 114.3,72.6 					"/>
					<polygon class="st294" points="114.3,72.6 117.6,66.4 117.6,66.4 114.3,72.6 					"/>
					<polygon class="st295" points="114.2,72.6 117.6,66.4 117.6,66.4 114.3,72.6 					"/>
					<polygon class="st296" points="114.2,72.6 117.5,66.4 117.6,66.4 114.2,72.6 					"/>
					<polygon class="st297" points="114.2,72.6 117.5,66.4 117.5,66.4 114.2,72.6 					"/>
					<polygon class="st298" points="114.2,72.6 117.5,66.4 117.5,66.4 114.2,72.6 					"/>
					<polygon class="st299" points="114.1,72.6 117.5,66.4 117.5,66.4 114.2,72.6 					"/>
					<polygon class="st300" points="114.1,72.6 117.4,66.4 117.5,66.4 114.1,72.6 					"/>
					<polygon class="st301" points="114.1,72.6 117.4,66.4 117.4,66.4 114.1,72.6 					"/>
					<polygon class="st302" points="114.1,72.6 117.4,66.4 117.4,66.4 114.1,72.6 					"/>
					<polygon class="st303" points="114,72.6 117.4,66.4 117.4,66.4 114.1,72.6 					"/>
					<polygon class="st304" points="114,72.6 117.3,66.4 117.4,66.4 114,72.6 					"/>
					<polygon class="st304" points="117.3,66.4 114,72.6 113.5,72.6 113.5,66.4 					"/>
				</g>
			</g>
		</g>
		<g>
			<path class="st305" d="M34.4,67.3L34.4,67.3c0,0.9-0.3,1.7-0.9,2.2c-0.6,0.5-1.4,0.8-2.4,0.8c-1,0-1.9-0.4-2.5-1.1
				c-0.6-0.7-0.9-1.7-0.9-2.9v-1.5c0-1.2,0.3-2.1,0.9-2.9s1.5-1.1,2.5-1.1c1,0,1.8,0.3,2.4,0.8c0.6,0.5,0.9,1.3,0.9,2.2l0,0h-0.7
				c0-0.7-0.2-1.3-0.7-1.7c-0.5-0.4-1.1-0.6-1.9-0.6c-0.8,0-1.5,0.3-1.9,0.9c-0.5,0.6-0.7,1.4-0.7,2.4v1.5c0,1,0.2,1.8,0.7,2.4
				c0.5,0.6,1.1,0.9,1.9,0.9c0.8,0,1.4-0.2,1.9-0.6c0.5-0.4,0.7-1,0.7-1.8H34.4z"/>
			<path class="st305" d="M39.3,64l-0.5,0c-0.5,0-0.9,0.1-1.2,0.4c-0.3,0.3-0.5,0.6-0.7,1.1v4.7h-0.8v-6.9h0.7l0.1,1.1v0.1
				c0.2-0.4,0.5-0.8,0.8-1s0.7-0.4,1.2-0.4c0.1,0,0.2,0,0.3,0s0.2,0,0.2,0L39.3,64z"/>
			<path class="st305" d="M43.1,70.4c-0.9,0-1.6-0.3-2.2-0.9c-0.6-0.6-0.8-1.4-0.8-2.4v-0.3c0-1,0.3-1.8,0.8-2.5
				c0.6-0.6,1.3-1,2.1-1c0.8,0,1.5,0.3,1.9,0.8c0.5,0.5,0.7,1.3,0.7,2.2v0.6h-4.8V67c0,0.8,0.2,1.4,0.6,1.9c0.4,0.5,0.9,0.8,1.6,0.8
				c0.4,0,0.8-0.1,1.2-0.2s0.6-0.3,0.9-0.6l0.3,0.5c-0.2,0.3-0.6,0.5-0.9,0.6C44.1,70.3,43.6,70.4,43.1,70.4z M43,63.9
				c-0.6,0-1.1,0.2-1.4,0.6c-0.4,0.4-0.6,0.9-0.7,1.6l0,0h3.9V66c0-0.6-0.2-1.1-0.5-1.5C44.1,64.1,43.6,63.9,43,63.9z"/>
			<path class="st305" d="M51.5,70.2c0-0.2-0.1-0.4-0.1-0.6c0-0.2,0-0.4,0-0.5c-0.2,0.4-0.6,0.7-1,0.9s-0.9,0.4-1.5,0.4
				c-0.7,0-1.2-0.2-1.6-0.5c-0.4-0.4-0.6-0.8-0.6-1.5c0-0.6,0.3-1.1,0.8-1.5s1.2-0.6,2.1-0.6h1.7v-0.9c0-0.5-0.2-0.9-0.5-1.2
				c-0.3-0.3-0.8-0.4-1.3-0.4c-0.5,0-0.9,0.1-1.3,0.4c-0.3,0.3-0.5,0.6-0.5,1h-0.7l0,0c0-0.5,0.2-1,0.7-1.4c0.5-0.4,1.1-0.6,1.8-0.6
				s1.4,0.2,1.8,0.6c0.5,0.4,0.7,0.9,0.7,1.7v3.4c0,0.2,0,0.5,0,0.7c0,0.2,0.1,0.5,0.1,0.7H51.5z M49,69.7c0.6,0,1.1-0.1,1.5-0.4
				s0.7-0.6,0.9-1.1v-1.3h-1.7c-0.6,0-1.1,0.1-1.5,0.4s-0.6,0.6-0.6,1.1c0,0.4,0.1,0.7,0.4,0.9C48.2,69.6,48.5,69.7,49,69.7z"/>
			<path class="st305" d="M55.3,61.6v1.8h1.5V64h-1.5v4.5c0,0.4,0.1,0.8,0.2,1c0.2,0.2,0.4,0.3,0.7,0.3c0.1,0,0.2,0,0.3,0
				c0.1,0,0.2,0,0.3-0.1l0.1,0.6c-0.1,0.1-0.2,0.1-0.4,0.1c-0.2,0-0.3,0-0.4,0c-0.5,0-0.9-0.2-1.1-0.5c-0.3-0.3-0.4-0.8-0.4-1.4V64
				h-1.2v-0.6h1.2v-1.8H55.3z"/>
			<path class="st305" d="M60.9,70.4c-0.9,0-1.6-0.3-2.2-0.9c-0.6-0.6-0.8-1.4-0.8-2.4v-0.3c0-1,0.3-1.8,0.8-2.5
				c0.6-0.6,1.3-1,2.1-1c0.8,0,1.5,0.3,1.9,0.8c0.5,0.5,0.7,1.3,0.7,2.2v0.6h-4.8V67c0,0.8,0.2,1.4,0.6,1.9c0.4,0.5,0.9,0.8,1.6,0.8
				c0.4,0,0.8-0.1,1.2-0.2s0.6-0.3,0.9-0.6l0.3,0.5c-0.2,0.3-0.6,0.5-0.9,0.6C62,70.3,61.5,70.4,60.9,70.4z M60.9,63.9
				c-0.6,0-1.1,0.2-1.4,0.6c-0.4,0.4-0.6,0.9-0.7,1.6l0,0h3.9V66c0-0.6-0.2-1.1-0.5-1.5C61.9,64.1,61.5,63.9,60.9,63.9z"/>
			<path class="st305" d="M64.7,66.8c0-1.1,0.2-2,0.7-2.6c0.5-0.7,1.1-1,1.9-1c0.5,0,0.9,0.1,1.2,0.3c0.4,0.2,0.6,0.5,0.9,0.8v-4
				h0.8v9.9h-0.6l-0.1-1c-0.2,0.4-0.5,0.6-0.9,0.8c-0.4,0.2-0.8,0.3-1.3,0.3c-0.8,0-1.5-0.3-1.9-0.9C65,68.8,64.7,68,64.7,67V66.8z
				 M65.5,67c0,0.8,0.2,1.5,0.5,2c0.3,0.5,0.8,0.7,1.5,0.7c0.5,0,0.9-0.1,1.2-0.3s0.6-0.5,0.8-0.9v-3.3c-0.2-0.4-0.4-0.7-0.7-1
				s-0.7-0.4-1.2-0.4c-0.7,0-1.2,0.3-1.5,0.8c-0.3,0.5-0.5,1.3-0.5,2.1V67z"/>
			<path class="st305" d="M81,67c0,1-0.2,1.8-0.7,2.5s-1.1,0.9-1.9,0.9c-0.5,0-0.9-0.1-1.3-0.3c-0.4-0.2-0.7-0.5-0.9-0.9l-0.1,1
				h-0.6v-9.9h0.8v4.1c0.2-0.4,0.5-0.7,0.9-0.9s0.8-0.3,1.3-0.3c0.8,0,1.5,0.3,1.9,1s0.7,1.5,0.7,2.6V67z M80.2,66.8
				c0-0.9-0.2-1.6-0.5-2.1s-0.8-0.8-1.5-0.8c-0.5,0-0.9,0.1-1.3,0.4s-0.6,0.6-0.7,1v3.1c0.2,0.4,0.4,0.7,0.8,0.9
				c0.3,0.2,0.8,0.3,1.3,0.3c0.7,0,1.2-0.2,1.5-0.7c0.3-0.5,0.5-1.2,0.5-2V66.8z"/>
			<path class="st305" d="M84.5,68.4l0.2,0.8h0l2.1-5.8h0.9l-3,8c-0.2,0.5-0.4,0.9-0.7,1.2S83.4,73,82.8,73c-0.1,0-0.2,0-0.3,0
				c-0.1,0-0.2,0-0.3-0.1l0.1-0.6c0.1,0,0.1,0,0.2,0c0.1,0,0.2,0,0.2,0c0.3,0,0.6-0.1,0.8-0.4c0.2-0.2,0.4-0.5,0.5-0.9l0.4-0.9
				l-2.7-6.8h0.8L84.5,68.4z"/>
		</g>
	</g>
	<g>
		<g>
			<path class="st306" d="M36.3,17.9c0-0.3,0.3-0.6,0.6-0.6h2.9c0.3,0,0.6,0.3,0.6,0.6v17.8h8.1c0.3,0,0.6,0.3,0.6,0.6v2.6
				c0,0.3-0.3,0.6-0.6,0.6H36.9c-0.3,0-0.6-0.3-0.6-0.6V17.9z"/>
			<path class="st306" d="M52.3,17.9c0-0.3,0.3-0.6,0.6-0.6h3c0.3,0,0.6,0.3,0.6,0.6v21c0,0.3-0.3,0.6-0.6,0.6h-3
				c-0.3,0-0.6-0.3-0.6-0.6V17.9z"/>
			<path class="st306" d="M72.1,16.9c3.2,0,5.5,1,7.7,3c0.3,0.3,0.3,0.6,0,0.9l-1.9,2c-0.2,0.3-0.5,0.3-0.8,0
				c-1.3-1.2-3.1-1.9-4.9-1.9c-4.1,0-7.1,3.4-7.1,7.4c0,4,3,7.3,7.1,7.3c1.9,0,3.5-0.7,4.9-1.8c0.3-0.2,0.6-0.2,0.8,0l2,2
				c0.3,0.2,0.2,0.6,0,0.9c-2.2,2.1-4.9,3.1-7.7,3.1c-6.4,0-11.5-5-11.5-11.4S65.7,16.9,72.1,16.9z"/>
			<path class="st306" d="M84,17.9c0-0.3,0.3-0.6,0.6-0.6h12.9c0.3,0,0.6,0.3,0.6,0.6v2.6c0,0.3-0.3,0.6-0.6,0.6h-9.4v5.2h7.8
				c0.3,0,0.6,0.3,0.6,0.6v2.6c0,0.3-0.3,0.6-0.6,0.6h-7.8v5.6h9.4c0.3,0,0.6,0.3,0.6,0.6v2.6c0,0.3-0.3,0.6-0.6,0.6H84.6
				c-0.3,0-0.6-0.3-0.6-0.6V17.9z"/>
			<path class="st306" d="M102.6,17.5c0-0.3,0.3-0.6,0.6-0.6h0.8l13.2,14h0V17.9c0-0.3,0.3-0.6,0.6-0.6h2.9c0.3,0,0.6,0.3,0.6,0.6
				v21.4c0,0.3-0.3,0.6-0.6,0.6H120l-13.3-14.6h0v13.7c0,0.3-0.3,0.6-0.6,0.6h-2.9c-0.3,0-0.6-0.3-0.6-0.6V17.5z"/>
			<path class="st306" d="M125.9,36.4l1.1-2c0.3-0.4,0.8-0.4,1.1-0.2c0.2,0.1,2.7,2,4.8,2c1.7,0,2.9-1.1,2.9-2.4
				c0-1.6-1.4-2.7-4-3.8c-3-1.2-6-3.1-6-6.9c0-2.8,2.1-6.1,7.1-6.1c3.2,0,5.7,1.7,6.4,2.1c0.3,0.2,0.4,0.7,0.2,1l-1.2,1.8
				c-0.3,0.4-0.7,0.6-1.1,0.4c-0.3-0.2-2.7-1.7-4.4-1.7c-1.8,0-2.8,1.2-2.8,2.2c0,1.5,1.2,2.5,3.7,3.6c3.1,1.2,6.6,3.1,6.6,7.2
				c0,3.3-2.8,6.3-7.3,6.3c-4,0-6.4-1.9-7-2.5C125.7,37,125.6,36.9,125.9,36.4z"/>
			<path class="st306" d="M144.4,17.9c0-0.3,0.3-0.6,0.6-0.6h3c0.3,0,0.6,0.3,0.6,0.6v21c0,0.3-0.3,0.6-0.6,0.6h-3
				c-0.3,0-0.6-0.3-0.6-0.6V17.9z"/>
			<path class="st306" d="M154.3,17.5c0-0.3,0.3-0.6,0.6-0.6h0.8l13.2,14h0V17.9c0-0.3,0.3-0.6,0.6-0.6h2.9c0.3,0,0.6,0.3,0.6,0.6
				v21.4c0,0.3-0.3,0.6-0.6,0.6h-0.8l-13.3-14.6h0v13.7c0,0.3-0.3,0.6-0.6,0.6h-2.9c-0.3,0-0.6-0.3-0.6-0.6V17.5z"/>
			<path class="st306" d="M188.7,16.9c2.9,0,5.6,1.1,7.7,3c0.3,0.3,0.3,0.6,0,0.9l-2,2.1c-0.3,0.3-0.5,0.3-0.8,0
				c-1.4-1.2-3-1.8-4.8-1.8c-4,0-7.1,3.4-7.1,7.4c0,3.9,3.1,7.3,7.1,7.3c1.8,0,3.1-0.5,3.8-0.8v-2.7h-2.5c-0.3,0-0.6-0.3-0.6-0.6
				v-2.5c0-0.3,0.3-0.6,0.6-0.6h6.1c0.3,0,0.6,0.3,0.6,0.6v8.1c0,0.3-0.1,0.4-0.3,0.5c0,0-3.3,2.1-7.9,2.1c-6.3,0-11.4-5-11.4-11.4
				S182.3,16.9,188.7,16.9z"/>
		</g>
		<g>
			<path class="st306" d="M207.6,30h-4.8c-0.3,0-0.6-0.3-0.6-0.6v-1.8c0-0.3,0.3-0.6,0.6-0.6h4.8v-4.8c0-0.3,0.3-0.6,0.6-0.6h1.8
				c0.3,0,0.6,0.3,0.6,0.6V27h4.8c0.3,0,0.6,0.3,0.6,0.6v1.8c0,0.3-0.3,0.6-0.6,0.6h-4.8v4.7c0,0.3-0.3,0.6-0.6,0.6h-1.8
				c-0.3,0-0.6-0.3-0.6-0.6V30z"/>
		</g>
	</g>
</g>
</svg>
